<svg width="20" height="20" viewBox="0 0 20 20" fill="none" xmlns="http://www.w3.org/2000/svg">
<path d="M20 16C20 18.2091 18.2091 20 16 20L4 20C1.79086 20 0 18.2091 0 16L0 4C0 1.79086 1.79086 0 4 0L16 0C18.2091 0 20 1.79086 20 4L20 16Z" fill="#363636"/>
<path d="M14.3536 10.3536C14.5488 10.1583 14.5488 9.84171 14.3536 9.64645L11.1716 6.46447C10.9763 6.2692 10.6597 6.2692 10.4645 6.46447C10.2692 6.65973 10.2692 6.97631 10.4645 7.17157L13.2929 10L10.4645 12.8284C10.2692 13.0237 10.2692 13.3403 10.4645 13.5355C10.6597 13.7308 10.9763 13.7308 11.1716 13.5355L14.3536 10.3536ZM6 10.5L14 10.5V9.5L6 9.5V10.5Z" fill="#998656"/>
</svg>
