<svg width="20" height="20" viewBox="0 0 20 20" fill="none" xmlns="http://www.w3.org/2000/svg">
<path d="M0 4C0 1.79086 1.79086 0 4 0H16C18.2091 0 20 1.79086 20 4V16C20 18.2091 18.2091 20 16 20H4C1.79086 20 0 18.2091 0 16V4Z" fill="#363636"/>
<path d="M5.64645 9.64645C5.45118 9.84171 5.45118 10.1583 5.64645 10.3536L8.82843 13.5355C9.02369 13.7308 9.34027 13.7308 9.53553 13.5355C9.7308 13.3403 9.7308 13.0237 9.53553 12.8284L6.70711 10L9.53553 7.17157C9.7308 6.97631 9.7308 6.65973 9.53553 6.46447C9.34027 6.2692 9.02369 6.2692 8.82843 6.46447L5.64645 9.64645ZM14 9.5L6 9.5V10.5L14 10.5V9.5Z" fill="#998656"/>
</svg>
