<svg width="8" height="8" viewBox="0 0 8 8" fill="none" xmlns="http://www.w3.org/2000/svg">
<g clip-path="url(#clip0_219_275)">
<path d="M8 4C8 6.20914 6.20914 8 4 8C1.79086 8 0 6.20914 0 4C0 1.79086 1.79086 0 4 0C6.20914 0 8 1.79086 8 4Z" fill="url(#paint0_linear_219_275)"/>
<mask id="mask0_219_275" style="mask-type:luminance" maskUnits="userSpaceOnUse" x="3" y="2" width="2" height="4">
<path d="M5 2H3V6H5V2Z" fill="white"/>
</mask>
<g mask="url(#mask0_219_275)">
<path d="M5 6H3V5.86283C3.09009 5.83356 3.18319 5.80979 3.27928 5.7915C3.37537 5.76955 3.48049 5.74943 3.59459 5.73114V3.57476L3 3.53086V3.3882C3.17418 3.34431 3.36337 3.3059 3.56757 3.27298C3.77177 3.24006 3.97598 3.21262 4.18018 3.19067H4.40541V5.73114C4.52553 5.74943 4.63364 5.76955 4.72973 5.7915C4.82582 5.80979 4.91591 5.83356 5 5.86283V6ZM3.42342 2.32373C3.42342 2.22497 3.47447 2.14632 3.57658 2.08779C3.68468 2.02927 3.82582 2 4 2C4.17418 2 4.31231 2.02927 4.41441 2.08779C4.51652 2.14632 4.56757 2.22497 4.56757 2.32373C4.56757 2.4225 4.51652 2.50115 4.41441 2.55967C4.31231 2.61454 4.17418 2.64198 4 2.64198C3.82582 2.64198 3.68468 2.61454 3.57658 2.55967C3.47447 2.50115 3.42342 2.4225 3.42342 2.32373Z" fill="black"/>
</g>
</g>
<defs>
<linearGradient id="paint0_linear_219_275" x1="4.57143" y1="-0.611936" x2="4.57143" y2="7.38806" gradientUnits="userSpaceOnUse">
<stop stop-color="#9F8E62"/>
<stop offset="1" stop-color="#FFD59A"/>
</linearGradient>
<clipPath id="clip0_219_275">
<rect width="8" height="8" fill="white"/>
</clipPath>
</defs>
</svg>
