<svg width="24" height="24" viewBox="0 0 24 24" fill="none" xmlns="http://www.w3.org/2000/svg">
<path fill-rule="evenodd" clip-rule="evenodd" d="M4.25 4.75C3.83579 4.75 3.5 5.08579 3.5 5.5V9.00028C3.5 9.41449 3.16421 9.75028 2.75 9.75028C2.33579 9.75028 2 9.41449 2 9.00028V5.5C2 4.25736 3.00736 3.25 4.25 3.25H8.53125C8.94546 3.25 9.28125 3.58579 9.28125 4C9.28125 4.41421 8.94546 4.75 8.53125 4.75H4.25ZM14.7188 4C14.7188 3.58579 15.0545 3.25 15.4688 3.25H19.75C20.9926 3.25 22 4.25736 22 5.5V9.00028C22 9.41449 21.6642 9.75028 21.25 9.75028C20.8358 9.75028 20.5 9.41449 20.5 9.00028V5.5C20.5 5.08579 20.1642 4.75 19.75 4.75H15.4688C15.0545 4.75 14.7188 4.41421 14.7188 4ZM2.75 14.2506C3.16421 14.2506 3.5 14.5864 3.5 15.0006V18.5009C3.5 18.9151 3.83579 19.2509 4.25 19.2509H8.53125C8.94546 19.2509 9.28125 19.5867 9.28125 20.0009C9.28125 20.4151 8.94546 20.7509 8.53125 20.7509H4.25C3.00736 20.7509 2 19.7435 2 18.5009V15.0006C2 14.5864 2.33579 14.2506 2.75 14.2506ZM21.25 14.2506C21.6642 14.2506 22 14.5864 22 15.0006V18.5009C22 19.7435 20.9926 20.7509 19.75 20.7509H15.4688C15.0545 20.7509 14.7188 20.4151 14.7188 20.0009C14.7188 19.5867 15.0545 19.2509 15.4688 19.2509H19.75C20.1642 19.2509 20.5 18.9151 20.5 18.5009V15.0006C20.5 14.5864 20.8358 14.2506 21.25 14.2506Z" fill="#9F8E62"/>
<path fill-rule="evenodd" clip-rule="evenodd" d="M5.05469 12.1328C5.05469 11.7186 5.39047 11.3828 5.80469 11.3828L18.1953 11.3828C18.6095 11.3828 18.9453 11.7186 18.9453 12.1328C18.9453 12.547 18.6095 12.8828 18.1953 12.8828L5.80469 12.8828C5.39047 12.8828 5.05469 12.547 5.05469 12.1328Z" fill="#9F8E62"/>
<path fill-rule="evenodd" clip-rule="evenodd" d="M8 6.7666C8.41421 6.7666 8.75 7.10239 8.75 7.5166V9.30757C8.75 9.72178 8.41421 10.0576 8 10.0576C7.58579 10.0576 7.25 9.72178 7.25 9.30757V7.5166C7.25 7.10239 7.58579 6.7666 8 6.7666ZM8 11.5012C8.41421 11.5012 8.75 11.837 8.75 12.2512V16.486C8.75 16.9002 8.41421 17.236 8 17.236C7.58579 17.236 7.25 16.9002 7.25 16.486V12.2512C7.25 11.837 7.58579 11.5012 8 11.5012Z" fill="#9F8E62"/>
<path fill-rule="evenodd" clip-rule="evenodd" d="M12 6.7666C12.4142 6.7666 12.75 7.10239 12.75 7.5166L12.75 12.1584C12.75 12.5726 12.4142 12.9084 12 12.9084C11.5858 12.9084 11.25 12.5726 11.25 12.1584L11.25 7.5166C11.25 7.10239 11.5858 6.7666 12 6.7666ZM12 14.352C12.4142 14.352 12.75 14.6878 12.75 15.102L12.75 16.486C12.75 16.9002 12.4142 17.236 12 17.236C11.5858 17.236 11.25 16.9002 11.25 16.486L11.25 15.102C11.25 14.6878 11.5858 14.352 12 14.352Z" fill="#9F8E62"/>
<path fill-rule="evenodd" clip-rule="evenodd" d="M16 6.7666C16.4142 6.7666 16.75 7.10239 16.75 7.5166L16.75 11.4769C16.75 11.8911 16.4142 12.2269 16 12.2269C15.5858 12.2269 15.25 11.8911 15.25 11.4769L15.25 7.5166C15.25 7.10239 15.5858 6.7666 16 6.7666ZM16 13.6705C16.4142 13.6705 16.75 14.0063 16.75 14.4205L16.75 16.486C16.75 16.9002 16.4142 17.236 16 17.236C15.5858 17.236 15.25 16.9002 15.25 16.486L15.25 14.4205C15.25 14.0063 15.5858 13.6705 16 13.6705Z" fill="#9F8E62"/>
</svg>
