<svg width="23" height="23" viewBox="0 0 23 23" fill="none" xmlns="http://www.w3.org/2000/svg">
<path d="M11.5 0C5.14882 0 0 5.14882 0 11.5C0 17.8516 5.14882 23 11.5 23C17.8512 23 23 17.8516 23 11.5C23 5.14882 17.8512 0 11.5 0V0ZM17.6424 17.6429C16.8446 18.4407 15.9154 19.0667 14.8812 19.5044C13.8103 19.9571 12.6729 20.1869 11.5 20.1869C10.327 20.1869 9.18963 19.9573 8.11875 19.5044C7.08446 19.0667 6.15534 18.4407 5.3575 17.6429C4.55966 16.845 3.93313 15.9155 3.49559 14.8812C3.04252 13.8104 2.81306 12.6732 2.81306 11.5C2.81306 10.3271 3.04253 9.18954 3.49559 8.11884C3.93296 7.08437 4.55948 6.15525 5.3575 5.35723C6.15534 4.55957 7.08451 3.93304 8.11875 3.49568C9.18958 3.04261 10.327 2.81315 11.5 2.81315C12.6729 2.81315 13.8103 3.04263 14.8812 3.49568C15.9154 3.93305 16.8446 4.55957 17.6424 5.35723C18.4402 6.15506 19.0668 7.08424 19.5043 8.11884C19.9574 9.18954 20.1869 10.3271 20.1869 11.5C20.1869 12.673 19.9574 13.8104 19.5043 14.8809C19.0668 15.9155 18.4404 16.8448 17.6424 17.6429V17.6429ZM11.2752 20.6331V22.5482C10.2622 22.5282 9.27113 22.3727 8.3145 22.0846L8.9064 20.262C9.66034 20.4847 10.4541 20.6137 11.2752 20.6331V20.6331ZM11.7246 20.6331C12.5458 20.6136 13.3395 20.4848 14.0934 20.2619L14.6853 22.0845C13.7285 22.3729 12.7376 22.5281 11.7246 22.5481V20.6331ZM2.36614 11.329H0.451243C0.466589 10.309 0.618804 9.31078 0.905564 8.34771L2.72805 8.93961C2.50677 9.69962 2.38115 10.5008 2.36616 11.329H2.36614ZM2.36864 11.778C2.39327 12.604 2.52746 13.4018 2.7573 14.1584L0.934673 14.7503C0.639525 13.7905 0.477852 12.7951 0.452681 11.778H2.36864ZM11.7243 2.36702V0.45212C12.7486 0.472284 13.7504 0.630924 14.7169 0.925158L14.125 2.74778C13.3616 2.51919 12.557 2.38714 11.7243 2.36698V2.36702ZM11.275 2.36702C10.4424 2.38718 9.63776 2.51923 8.87436 2.74764L8.28246 0.92502C9.24891 0.63112 10.2507 0.472302 11.275 0.451983V2.36702ZM20.6307 11.778H22.5468C22.5218 12.7953 22.3603 13.7905 22.0648 14.7503L20.2422 14.1584C20.4719 13.4018 20.6064 12.6038 20.6307 11.778H20.6307ZM20.6332 11.329C20.6178 10.5012 20.4926 9.69999 20.2711 8.93961L22.0936 8.34771C22.3804 9.31114 22.5328 10.309 22.5479 11.329H20.6332ZM21.957 7.91908L20.1347 8.51134C19.8671 7.73795 19.4988 7.01206 19.045 6.34857L20.5955 5.22224C21.0231 5.83999 21.3867 6.50028 21.6819 7.19872C21.7823 7.43676 21.8739 7.67659 21.957 7.91912L21.957 7.91908ZM20.3326 4.8582L18.7823 5.98435C18.2916 5.33767 17.7168 4.75824 17.0739 4.26236L18.2002 2.71201C18.5897 3.01001 18.9618 3.33461 19.313 3.68595C19.6825 4.05515 20.0223 4.44633 20.3326 4.85815L20.3326 4.8582ZM17.8383 2.44632L16.712 3.997C16.0501 3.53625 15.3249 3.16097 14.5515 2.88706L15.1434 1.06476C15.3645 1.14202 15.5837 1.22571 15.8003 1.31743C16.5221 1.62258 17.2029 2.0007 17.8383 2.44628V2.44632ZM7.85495 1.0648L8.44686 2.88711C7.67383 3.16102 6.94826 3.53629 6.28642 3.99704L5.16008 2.44655C5.79552 2.00061 6.47645 1.62249 7.19791 1.3177C7.41472 1.22562 7.63403 1.14211 7.85495 1.06484V1.0648ZM3.68523 3.68618C4.03642 3.335 4.40811 3.01022 4.798 2.71223L5.92434 4.26259C5.28141 4.75833 4.70664 5.33772 4.21592 5.98458L2.66556 4.85842C2.97624 4.44639 3.31599 4.05524 3.68519 3.68622L3.68523 3.68618ZM2.40294 5.22224L3.95343 6.34857C3.49982 7.01188 3.13116 7.73795 2.86369 8.51134L1.04139 7.91944C1.12454 7.67693 1.21608 7.4364 1.31637 7.1989C1.61205 6.50065 1.97556 5.8404 2.40292 5.22224H2.40294ZM1.07533 15.1764L2.89763 14.5845C3.1719 15.3493 3.54558 16.0675 4.00272 16.7224L2.45223 17.8486C2.00326 17.2106 1.62333 16.5265 1.31662 15.8015C1.22936 15.5952 1.1496 15.3868 1.07536 15.1764H1.07533ZM2.71846 18.2106L4.26896 17.0839C4.76059 17.7199 5.33445 18.2892 5.97418 18.7756L4.84784 20.3263C4.43956 20.0181 4.05142 19.6803 3.6851 19.314C3.33677 18.9658 3.01467 18.597 2.71846 18.2106ZM5.21188 20.5895L6.33804 19.039C6.99472 19.4892 7.71329 19.8558 8.47815 20.1236L7.88625 21.9459C7.6548 21.8661 7.42495 21.7785 7.19818 21.6827C6.49601 21.3857 5.83252 21.0199 5.21193 20.5895L5.21188 20.5895ZM15.1121 21.9462L14.5202 20.1239C15.285 19.8561 16.0036 19.4895 16.6603 19.0393L17.7866 20.5898C17.1658 21.02 16.5022 21.3857 15.8002 21.683C15.5736 21.7788 15.3436 21.8661 15.1121 21.9462L15.1121 21.9462ZM19.3131 19.314C18.9467 19.6803 18.5586 20.0179 18.1503 20.3263L17.0242 18.7758C17.6639 18.2892 18.2378 17.7201 18.7294 17.0841L20.2799 18.2108C19.9838 18.597 19.6616 18.9658 19.3131 19.314V19.314ZM20.5459 17.8484L18.9954 16.7222C19.4526 16.0672 19.8263 15.3493 20.1005 14.5843L21.9228 15.1762C21.8486 15.3864 21.7687 15.595 21.6816 15.8011C21.3748 16.5263 20.9949 17.2105 20.546 17.8484H20.5459Z" fill="#9F8E62"/>
<path d="M11.4991 3.55371C7.11082 3.55371 3.55273 7.1112 3.55273 11.5001C3.55273 15.8884 7.11041 19.4465 11.4991 19.4465C15.8878 19.4465 19.4455 15.8885 19.4455 11.5001C19.4455 7.11143 15.8878 3.55371 11.4991 3.55371V3.55371ZM16.8005 16.801C15.3848 18.217 13.5018 18.9966 11.4991 18.9966C9.49647 18.9966 7.61364 18.2172 6.19818 16.8012C4.78204 15.3852 4.00225 13.5023 4.00225 11.4998C4.00225 9.49731 4.78204 7.6143 6.19818 6.19838C7.61396 4.78242 9.49675 4.00263 11.4991 4.00263C13.5015 4.00263 15.3846 4.78242 16.8005 6.19838C18.2165 7.61416 18.9963 9.49713 18.9963 11.4998C18.9963 13.5024 18.2165 15.3853 16.8005 16.8012V16.801Z" fill="#9F8E62"/>
<path d="M15.038 10.3976C14.7272 10.3976 14.439 10.5243 14.2309 10.7488H13.3337C13.1329 10.2581 12.7423 9.868 12.2517 9.66686V8.76962C12.4764 8.56155 12.6029 8.27337 12.6029 7.96251C12.6029 7.35439 12.1081 6.85938 11.5001 6.85938C10.892 6.85938 10.3973 7.35439 10.3973 7.96251C10.3973 8.27336 10.524 8.56153 10.7485 8.76962V9.66686C10.2581 9.86761 9.86767 10.258 9.66654 10.7488H8.7693C8.56123 10.5241 8.27305 10.3976 7.96218 10.3976C7.35407 10.3976 6.85938 10.8924 6.85938 11.5004C6.85938 12.1082 7.3542 12.603 7.96218 12.603C8.27304 12.603 8.56121 12.4767 8.7693 12.2519H9.66654C9.86729 12.7426 10.2579 13.1327 10.7485 13.3338V14.2312C10.5238 14.4389 10.3973 14.7273 10.3973 15.0382C10.3973 15.6463 10.8921 16.141 11.5001 16.141C12.1082 16.141 12.6029 15.6461 12.6029 15.0382C12.6029 14.7273 12.4762 14.4391 12.2517 14.2309V13.334C12.7421 13.1332 13.1325 12.7428 13.3337 12.2521H14.2309C14.439 12.4769 14.7271 12.6032 15.038 12.6032C15.6461 12.6032 16.1408 12.1084 16.1408 11.5006C16.1408 10.8925 15.646 10.3976 15.038 10.3976V10.3976ZM15.038 12.1539C14.8305 12.1539 14.6399 12.0584 14.5152 11.8926L14.4477 11.8025H13.0116L12.9622 11.9599C12.8123 12.437 12.4375 12.8118 11.9603 12.9617L11.803 13.0111V14.4476L11.8927 14.515C12.0587 14.6394 12.1541 14.8302 12.1541 15.0377C12.1541 15.398 11.8609 15.6914 11.5005 15.6914C11.14 15.6914 10.8468 15.3982 10.8468 15.0377C10.8468 14.8302 10.9423 14.6394 11.1082 14.515L11.198 14.4476V13.0111L11.0406 12.9617C10.5634 12.8118 10.1887 12.4371 10.0388 11.9599L9.98936 11.8025H8.55321L8.48576 11.8921C8.36084 12.0584 8.17027 12.1539 7.96293 12.1539C7.60247 12.1539 7.30926 11.8607 7.30926 11.5006C7.30926 11.1401 7.60245 10.8469 7.96293 10.8469C8.17046 10.8469 8.36104 10.942 8.48576 11.1083L8.55321 11.1981H9.98936L10.0388 11.0407C10.1887 10.5633 10.5632 10.1888 11.0408 10.0389L11.1978 9.98945V8.55297L11.1081 8.4857C10.9421 8.36078 10.8466 8.17021 10.8466 7.96287C10.8466 7.60241 11.1398 7.3092 11.5003 7.3092C11.8608 7.3092 12.154 7.60239 12.154 7.96287C12.154 8.1704 12.0585 8.36098 11.8925 8.4857L11.8028 8.55297V9.98945L11.9602 10.0389C12.4373 10.1888 12.812 10.5633 12.962 11.0407L13.0114 11.1981H14.4476L14.515 11.1083C14.6399 10.942 14.8305 10.8469 15.0378 10.8469C15.3983 10.8469 15.6915 11.1401 15.6915 11.5006C15.6917 11.8605 15.3985 12.1539 15.038 12.1539L15.038 12.1539Z" fill="#9F8E62"/>
<path d="M11.5001 10.6699C11.0423 10.6699 10.6699 11.0423 10.6699 11.5001C10.6699 11.9578 11.0423 12.33 11.5001 12.33C11.9578 12.33 12.3302 11.9578 12.3302 11.5001C12.3302 11.0423 11.9578 10.6699 11.5001 10.6699ZM11.5001 11.8807C11.29 11.8807 11.1194 11.7097 11.1194 11.5001C11.1194 11.29 11.29 11.1191 11.5001 11.1191C11.7101 11.1191 11.8807 11.29 11.8807 11.5001C11.8807 11.7099 11.7101 11.8807 11.5001 11.8807Z" fill="#9F8E62"/>
</svg>
