<svg width="34" height="36" viewBox="0 0 34 36" fill="none" xmlns="http://www.w3.org/2000/svg">
<path d="M33.8239 24.33L29.8071 14.8322V4.54606C29.8071 3.232 28.7186 2.14345 27.4045 2.14345H24.4389L24.1383 1.46758C23.6128 0.266149 22.2238 -0.334301 20.985 0.191268L16.405 2.14345H11.4121C10.098 2.14345 9.0095 3.232 9.0095 4.54606V5.2968L6.26909 6.4605C5.06766 6.98605 4.46721 8.375 4.99278 9.61385L9.00977 19.1116V19.8624C8.67196 19.8249 8.33417 19.7872 7.95863 19.7872C3.56637 19.7872 0 23.3535 0 27.7459C0 32.1381 3.5663 35.7045 7.95863 35.7045C10.699 35.7045 13.1016 34.3155 14.5657 32.2133L14.6783 32.4762C15.0538 33.3773 15.9546 33.9403 16.8932 33.9403C17.1935 33.9403 17.5313 33.8652 17.8317 33.7526L22.4491 31.8004H27.442C28.7561 31.8004 29.8446 30.7118 29.8446 29.3978V28.647L32.585 27.4833C33.749 26.9578 34.312 25.5314 33.8239 24.33ZM21.3603 1.01723C21.5481 0.942076 21.7359 0.904629 21.9611 0.904629C22.5618 0.904629 23.0873 1.24243 23.35 1.80567L23.5 2.14348H18.6948L21.3603 1.01723ZM5.8185 9.2011C5.48069 8.45035 5.85594 7.54924 6.60699 7.24892L9.00959 6.23525V16.7842L5.8185 9.2011ZM7.95818 20.6135C8.93417 20.6135 9.83522 20.8012 10.6611 21.139L10.0981 22.528C9.45995 22.2651 8.70917 22.115 7.95816 22.115L7.95818 20.6135ZM5.29293 21.1765L5.85593 22.5654C5.18033 22.8658 4.57961 23.241 4.05405 23.7668L2.96523 22.7157C3.6411 22.0398 4.42929 21.5143 5.29293 21.1765ZM1.46371 25.0057L2.85265 25.5687C2.58974 26.2069 2.43969 26.9576 2.43969 27.7086H0.938196C0.900749 26.7325 1.0882 25.8316 1.46371 25.0057ZM2.96521 32.7015C2.32705 32.0634 1.80151 31.2749 1.42597 30.4115L2.81491 29.8485C3.11527 30.5241 3.52825 31.1249 4.01634 31.6504L2.96521 32.7015ZM7.95812 34.7661C7.0196 34.7661 6.08108 34.5783 5.25519 34.2405L5.81819 32.8516C6.45635 33.1145 7.20713 33.2645 7.95814 33.2645L7.95812 34.7661ZM3.30321 27.7084C3.30321 25.118 5.40542 23.0533 7.95832 23.0533C10.5487 23.0533 12.6134 25.1555 12.6134 27.7084C12.6134 30.2988 10.5112 32.3635 7.95832 32.3635C5.40542 32.3633 3.30321 30.2611 3.30321 27.7084ZM11.9 23.7666L12.9512 22.7154C13.5893 23.3536 14.1149 24.1421 14.4904 25.0054L13.1015 25.5684C12.8385 24.8928 12.4256 24.2921 11.9 23.7666ZM10.6989 34.2404L10.0981 32.8515C10.7737 32.5511 11.3745 32.1759 11.9 31.6501L12.9512 32.7012C12.313 33.3396 11.5622 33.8652 10.6989 34.2404ZM13.1015 29.8108C13.3644 29.1726 13.5144 28.4218 13.5144 27.6708H15.0159C15.0159 28.6093 14.8282 29.5478 14.4904 30.3737L13.1015 29.8108ZM17.456 32.889C16.7052 33.1893 15.8041 32.8515 15.5038 32.1005L15.3537 31.7627H20.1215L17.456 32.889ZM28.9059 29.3603C28.9059 30.1862 28.2303 30.8618 27.4044 30.8618H15.2788C15.6917 29.8858 15.9169 28.8348 15.9169 27.7085C15.9169 23.9919 13.3265 20.8385 9.87286 19.9751L9.87312 4.54588C9.87312 3.71999 10.5487 3.04439 11.3746 3.04439H27.3669C28.1928 3.04439 28.8684 3.71999 28.8684 4.54588L28.8687 29.3603L28.9059 29.3603ZM32.2095 26.6574L29.8069 27.6711V17.1597L32.998 24.7054C33.2981 25.4187 32.9603 26.3193 32.2095 26.6574Z" fill="#292D30"/>
<path d="M19.7088 12.1291C19.5587 11.9791 19.2958 11.9791 19.1081 12.1291L15.5418 15.6954C14.6033 16.634 14.6033 18.2107 15.5418 19.1492C16.0299 19.6373 16.6303 19.8625 17.2688 19.8625C17.7192 19.8625 18.1698 19.7499 18.5828 19.487L17.6818 21.5141C17.6066 21.7018 17.7192 21.8896 17.9447 21.8896H20.8729C21.0606 21.8896 21.2107 21.7018 21.1358 21.5141L20.2348 19.487C20.6477 19.7499 21.0981 19.8625 21.5488 19.8625C22.187 19.8625 22.8251 19.5996 23.3132 19.1118C24.2143 18.1358 24.1766 16.5965 23.2381 15.658L19.7088 12.1291Z" fill="#292D30"/>
<path d="M12.9138 4.28297C12.8763 4.24552 12.7637 4.24552 12.726 4.28297L11.5246 5.4844C11.2242 5.82221 11.2242 6.34777 11.5246 6.6481C11.6746 6.79815 11.9001 6.8733 12.1253 6.8733C12.2753 6.8733 12.4257 6.83586 12.5757 6.7607L12.2753 7.4363C12.2379 7.51145 12.2753 7.5489 12.3505 7.5489H13.3265C13.4016 7.5489 13.4391 7.47375 13.4016 7.4363L13.1013 6.7607C13.2513 6.83586 13.4016 6.91075 13.5517 6.91075C13.7769 6.91075 14.0021 6.83559 14.1524 6.64784C14.4528 6.31003 14.4528 5.82194 14.115 5.48414L12.9138 4.28297Z" fill="#292D30"/>
<path d="M26.7289 26.9949C26.5788 26.9949 26.4285 27.0324 26.2785 27.1075L26.5788 26.4319C26.6163 26.3568 26.5788 26.3193 26.5037 26.3193H25.5277C25.4525 26.3193 25.4151 26.3945 25.4525 26.4319L25.7529 27.1075C25.6028 27.0324 25.4525 26.9575 25.3025 26.9575C25.0773 26.9575 24.8521 27.0326 24.7018 27.2204C24.4014 27.5582 24.4014 28.0463 24.7392 28.3841L25.9406 29.5855C25.9781 29.623 26.0907 29.623 26.1284 29.5855L27.3298 28.3841C27.6676 28.0463 27.6676 27.5207 27.3298 27.2204C27.1418 27.0701 26.9166 26.9949 26.7289 26.9949H26.7289Z" fill="#292D30"/>
<path d="M8.22139 27.2207H7.69583C7.28287 27.2207 6.98249 26.8829 7.02023 26.47C7.05768 26.1322 7.39575 25.8693 7.73357 25.8693H8.37147C8.59668 25.8693 8.78443 26.0193 8.82188 26.2448C8.82188 26.32 8.89703 26.3574 8.93448 26.3574H9.61008C9.68523 26.3574 9.76013 26.2823 9.76013 26.2074C9.68497 25.5318 9.12197 24.9685 8.40866 24.931L8.40919 24.2174C8.40919 24.1423 8.33403 24.0674 8.25914 24.0674H7.62072C7.54556 24.0674 7.47067 24.1425 7.47067 24.2174V24.893C6.6073 25.0056 5.96918 25.7941 6.04406 26.6949C6.11921 27.5583 6.90743 28.159 7.73332 28.159H8.18373C8.59669 28.159 8.89707 28.4968 8.85933 28.9098C8.82188 29.2476 8.48381 29.5105 8.14599 29.5105H7.54528C7.32007 29.5105 7.13231 29.3604 7.09487 29.1349C7.09487 29.0598 7.01971 29.0223 6.98227 29.0223H6.30667C6.23151 29.0223 6.15662 29.0975 6.15662 29.1724C6.23177 29.848 6.79478 30.4112 7.50808 30.4487V31.1243C7.50808 31.1995 7.58324 31.2744 7.65813 31.2744H8.33373C8.40889 31.2744 8.48378 31.1992 8.48378 31.1243V30.411C9.23453 30.2984 9.83524 29.6976 9.91039 28.9469C9.9481 28.0466 9.19731 27.2207 8.22139 27.2207Z" fill="#292D30"/>
</svg>
