<svg width="65" height="62" viewBox="0 0 65 62" fill="none" xmlns="http://www.w3.org/2000/svg">
<path d="M63.224 36.9674H24.3679L39.2841 22.4798C39.7974 21.9813 39.7974 21.1755 39.2841 20.6775L34.6446 16.1699C33.1077 14.6784 30.6099 14.6823 29.0758 16.1699L1.15178 43.2891C-0.383926 44.7794 -0.383926 47.2067 1.15178 48.6976L5.79293 53.2052C6.04898 53.4539 6.38473 53.5786 6.72106 53.5786C7.05681 53.5786 7.39314 53.4534 7.64919 53.2052L19.9111 41.2955V57.3631C19.9111 59.4716 21.6777 61.1873 23.8486 61.1873H60.5987C62.7696 61.1873 64.5362 59.4716 64.5362 57.3631V38.242C64.5362 37.5386 63.9496 36.9672 63.2237 36.9672L63.224 36.9674ZM6.72038 50.5012L3.00728 46.8949C2.49516 46.3975 2.49516 45.5894 3.00728 45.0909L30.9313 17.9732C31.1874 17.7245 31.5231 17.601 31.8606 17.601C32.1964 17.601 32.5327 17.7245 32.7887 17.9732L36.5006 21.5795L6.72038 50.5012ZM51.4115 39.5169V58.638H48.7864V39.5169H51.4115ZM46.1614 39.5169V58.638H38.2864V39.5169H46.1614ZM35.6614 58.638H33.0364V39.5169H35.6614V58.638ZM22.5364 57.3632V39.5169H30.4114V58.638H23.8489C23.1247 58.638 22.5364 58.0655 22.5364 57.3632ZM61.9115 57.3632C61.9115 58.0655 61.3232 58.638 60.599 58.638H54.0365V39.5169H61.9115V57.3632Z" fill="#9F8E62"/>
<path d="M52.5606 34.417C59.0745 34.417 64.3731 29.2697 64.3731 22.9443C64.3731 16.619 59.0745 11.4717 52.5606 11.4717C46.0467 11.4717 40.748 16.619 40.748 22.9443C40.748 29.2697 46.0467 34.417 52.5606 34.417ZM52.5606 14.0212C57.6255 14.0212 61.7481 18.0241 61.7481 22.9443C61.7481 27.8645 57.6255 31.8675 52.5606 31.8675C47.4957 31.8675 43.3731 27.8645 43.3731 22.9443C43.3731 18.0241 47.4957 14.0212 52.5606 14.0212Z" fill="#9F8E62"/>
<path d="M52.5601 26.7706C51.8358 26.7706 51.2476 26.1981 51.2476 25.4958C51.2476 24.7924 50.661 24.2211 49.9351 24.2211C49.2091 24.2211 48.6226 24.7924 48.6226 25.4958C48.6226 27.1553 49.7235 28.5575 51.2476 29.0856V29.3201C51.2476 30.0235 51.8341 30.5948 52.5601 30.5948C53.286 30.5948 53.8726 30.0235 53.8726 29.3201V29.0856C55.3966 28.5581 56.4976 27.1559 56.4976 25.4958C56.4976 23.3873 54.731 21.6716 52.5601 21.6716C51.8358 21.6716 51.2476 21.0991 51.2476 20.3969C51.2476 19.6946 51.8358 19.1221 52.5601 19.1221C53.2843 19.1221 53.8726 19.6946 53.8726 20.3969C53.8726 21.1002 54.4591 21.6716 55.1851 21.6716C55.911 21.6716 56.4976 21.1002 56.4976 20.3969C56.4976 18.7374 55.3966 17.3352 53.8726 16.8071V16.5726C53.8726 15.8692 53.286 15.2979 52.5601 15.2979C51.8341 15.2979 51.2476 15.8692 51.2476 16.5726V16.8071C49.7236 17.3346 48.6226 18.7368 48.6226 20.3969C48.6226 22.5054 50.3891 24.2211 52.5601 24.2211C53.2843 24.2211 53.8726 24.7936 53.8726 25.4958C53.8726 26.1981 53.2843 26.7706 52.5601 26.7706Z" fill="#9F8E62"/>
<path d="M44.8477 0C44.1217 0 43.5352 0.57136 43.5352 1.27474V2.54948C43.5352 3.25286 44.1217 3.82422 44.8477 3.82422C45.5736 3.82422 46.1602 3.25286 46.1602 2.54948V1.27474C46.1602 0.57136 45.5736 0 44.8477 0Z" fill="#9F8E62"/>
<path d="M43.5352 8.9235C43.5352 9.62688 44.1217 10.1982 44.8477 10.1982C45.5736 10.1982 46.1602 9.62688 46.1602 8.9235V7.64876C46.1602 6.94538 45.5736 6.37402 44.8477 6.37402C44.1217 6.37402 43.5352 6.94538 43.5352 7.64876V8.9235Z" fill="#9F8E62"/>
<path d="M48.7861 3.82422H47.4736C46.7477 3.82422 46.1611 4.39558 46.1611 5.09896C46.1611 5.80234 46.7477 6.3737 47.4736 6.3737H48.7861C49.5121 6.3737 50.0986 5.80234 50.0986 5.09896C50.0986 4.39558 49.5121 3.82422 48.7861 3.82422Z" fill="#9F8E62"/>
<path d="M42.2246 3.82422H40.9121C40.1861 3.82422 39.5996 4.39558 39.5996 5.09896C39.5996 5.80234 40.1861 6.3737 40.9121 6.3737H42.2246C42.9506 6.3737 43.5371 5.80234 43.5371 5.09896C43.5371 4.39558 42.9506 3.82422 42.2246 3.82422Z" fill="#9F8E62"/>
<path d="M38.2861 26.7695C37.5602 26.7695 36.9736 27.3409 36.9736 28.0443V29.319C36.9736 30.0224 37.5602 30.5938 38.2861 30.5938C39.0121 30.5938 39.5986 30.0224 39.5986 29.319V28.0443C39.5986 27.3409 39.0121 26.7695 38.2861 26.7695Z" fill="#9F8E62"/>
<path d="M39.5986 35.693V34.4183C39.5986 33.7149 39.0121 33.1436 38.2861 33.1436C37.5602 33.1436 36.9736 33.7149 36.9736 34.4183V35.693C36.9736 36.3964 37.5602 36.9678 38.2861 36.9678C39.0121 36.9678 39.5986 36.3964 39.5986 35.693Z" fill="#9F8E62"/>
<path d="M40.9121 33.1432H42.2246C42.9506 33.1432 43.5371 32.5719 43.5371 31.8685C43.5371 31.1651 42.9506 30.5938 42.2246 30.5938H40.9121C40.1861 30.5938 39.5996 31.1651 39.5996 31.8685C39.5996 32.5719 40.1861 33.1432 40.9121 33.1432Z" fill="#9F8E62"/>
<path d="M34.3472 30.5938C33.6212 30.5938 33.0347 31.1651 33.0347 31.8685C33.0347 32.5719 33.6212 33.1432 34.3472 33.1432H35.6597C36.3856 33.1432 36.9722 32.5719 36.9722 31.8685C36.9722 31.1651 36.3856 30.5938 35.6597 30.5938H34.3472Z" fill="#9F8E62"/>
</svg>
