<svg width="16" height="16" viewBox="0 0 16 16" fill="none" xmlns="http://www.w3.org/2000/svg">
<path d="M10.4832 9.01647L9.74987 8.28314C10.0388 7.49425 9.88876 6.83869 9.29987 6.31647C8.71098 5.79425 8.07209 5.66092 7.3832 5.91647L6.64987 5.18314C6.83876 5.06092 7.04987 4.97203 7.2832 4.91647C7.51654 4.86092 7.75543 4.83314 7.99987 4.83314C8.78876 4.83314 9.4582 5.10814 10.0082 5.65814C10.5582 6.20814 10.8332 6.87758 10.8332 7.66647C10.8332 7.91092 10.8026 8.15258 10.7415 8.39147C10.6804 8.63036 10.5943 8.83869 10.4832 9.01647ZM12.6332 11.1665L11.9665 10.4998C12.511 10.0998 12.986 9.65258 13.3915 9.15814C13.7971 8.66369 14.0943 8.16647 14.2832 7.66647C13.7276 6.43314 12.8943 5.45814 11.7832 4.74147C10.6721 4.02481 9.46654 3.66647 8.16654 3.66647C7.69987 3.66647 7.22209 3.71092 6.7332 3.7998C6.24431 3.88869 5.86098 3.99425 5.5832 4.11647L4.81654 3.33314C5.20543 3.15536 5.70265 2.9998 6.3082 2.86647C6.91376 2.73314 7.50543 2.66647 8.0832 2.66647C9.5832 2.66647 10.9665 3.07758 12.2332 3.8998C13.4999 4.72203 14.4665 5.82758 15.1332 7.21647C15.1665 7.27203 15.1888 7.33869 15.1999 7.41647C15.211 7.49425 15.2165 7.57758 15.2165 7.66647C15.2165 7.75536 15.211 7.84147 15.1999 7.9248C15.1888 8.00814 15.1665 8.07758 15.1332 8.13314C14.8443 8.74425 14.4888 9.30536 14.0665 9.81647C13.6443 10.3276 13.1665 10.7776 12.6332 11.1665ZM13.2332 14.5665L10.7999 12.1831C10.411 12.3387 9.97209 12.4581 9.4832 12.5415C8.99431 12.6248 8.49987 12.6665 7.99987 12.6665C6.46654 12.6665 5.06098 12.2554 3.7832 11.4331C2.50543 10.6109 1.5332 9.50536 0.866536 8.11647C0.833203 8.04981 0.810981 7.98036 0.79987 7.90814C0.788759 7.83592 0.783203 7.75536 0.783203 7.66647C0.783203 7.57758 0.791536 7.49147 0.808203 7.40814C0.82487 7.32481 0.844314 7.25536 0.866536 7.19981C1.09987 6.69981 1.39709 6.21369 1.7582 5.74147C2.11931 5.26925 2.54431 4.82203 3.0332 4.3998L1.2832 2.6498C1.1832 2.5498 1.1332 2.43314 1.1332 2.2998C1.1332 2.16647 1.1832 2.0498 1.2832 1.9498C1.3832 1.8498 1.50265 1.7998 1.64154 1.7998C1.78043 1.7998 1.89987 1.8498 1.99987 1.9498L13.9332 13.8831C14.0221 13.972 14.0665 14.0804 14.0665 14.2081C14.0665 14.3359 14.0221 14.4498 13.9332 14.5498C13.8443 14.6609 13.7304 14.7165 13.5915 14.7165C13.4526 14.7165 13.3332 14.6665 13.2332 14.5665ZM3.71654 5.0998C3.30543 5.3998 2.9082 5.79425 2.52487 6.28314C2.14154 6.77203 1.86654 7.23314 1.69987 7.66647C2.26654 8.89981 3.11931 9.8748 4.2582 10.5915C5.39709 11.3081 6.68876 11.6665 8.1332 11.6665C8.49987 11.6665 8.86098 11.6442 9.21654 11.5998C9.57209 11.5554 9.83876 11.4887 10.0165 11.3998L8.94987 10.3331C8.82765 10.3887 8.67765 10.4304 8.49987 10.4581C8.32209 10.4859 8.15543 10.4998 7.99987 10.4998C7.22209 10.4998 6.55543 10.2276 5.99987 9.68314C5.44431 9.13869 5.16654 8.46647 5.16654 7.66647C5.16654 7.4998 5.18043 7.33314 5.2082 7.16647C5.23598 6.9998 5.27765 6.8498 5.3332 6.71647L3.71654 5.0998Z" fill="#F2F2F2"/>
</svg>
