<svg width="39" height="39" viewBox="0 0 39 39" fill="none" xmlns="http://www.w3.org/2000/svg">
<path d="M2.84375 32.5C2.49167 32.5 2.20052 32.3849 1.97031 32.1547C1.7401 31.9245 1.625 31.6333 1.625 31.2813V26C1.625 25.2146 1.9026 24.5443 2.45781 23.9891C3.01302 23.4339 3.68333 23.1563 4.46875 23.1563H10.1969C10.6573 23.1563 11.0974 23.2714 11.5172 23.5016C11.937 23.7318 12.2958 24.05 12.5938 24.4563C13.3792 25.5938 14.3813 26.474 15.6 27.0969C16.8188 27.7198 18.1187 28.0313 19.5 28.0313C20.8813 28.0313 22.1812 27.7198 23.4 27.0969C24.6187 26.474 25.6344 25.5938 26.4469 24.4563C26.7448 24.05 27.0969 23.7318 27.5031 23.5016C27.9094 23.2714 28.3427 23.1563 28.8031 23.1563H34.5312C35.3167 23.1563 35.987 23.4339 36.5422 23.9891C37.0974 24.5443 37.375 25.2146 37.375 26V31.2813C37.375 31.6333 37.2599 31.9245 37.0297 32.1547C36.7995 32.3849 36.5083 32.5 36.1562 32.5H28.0312C27.6792 32.5 27.388 32.3849 27.1578 32.1547C26.9276 31.9245 26.8125 31.6333 26.8125 31.2813V27.6656C25.8375 28.5594 24.7203 29.25 23.4609 29.7375C22.2016 30.225 20.8813 30.4688 19.5 30.4688C18.1187 30.4688 16.8052 30.225 15.5594 29.7375C14.3135 29.25 13.1896 28.5594 12.1875 27.6656V31.2813C12.1875 31.6333 12.0724 31.9245 11.8422 32.1547C11.612 32.3849 11.3208 32.5 10.9688 32.5H2.84375ZM19.5 25.5938C18.5521 25.5938 17.638 25.3703 16.7578 24.9234C15.8776 24.4766 15.1667 23.8604 14.625 23.075C14.1917 22.4521 13.6703 21.951 13.0609 21.5719C12.4516 21.1927 11.7948 20.9354 11.0906 20.8C11.876 19.9875 13.1083 19.3646 14.7875 18.9313C16.4667 18.4979 18.0375 18.2813 19.5 18.2813C20.9625 18.2813 22.5401 18.4979 24.2328 18.9313C25.9255 19.3646 27.1646 19.9875 27.95 20.8C27.2458 20.9354 26.5891 21.1927 25.9797 21.5719C25.3703 21.951 24.849 22.4521 24.4156 23.075C23.874 23.8604 23.163 24.4766 22.2828 24.9234C21.4026 25.3703 20.475 25.5938 19.5 25.5938ZM6.5 20.3125C5.25417 20.3125 4.19792 19.8792 3.33125 19.0125C2.46458 18.1458 2.03125 17.0896 2.03125 15.8438C2.03125 14.5979 2.46458 13.5417 3.33125 12.675C4.19792 11.8083 5.25417 11.375 6.5 11.375C7.74583 11.375 8.80208 11.8083 9.66875 12.675C10.5354 13.5417 10.9688 14.5979 10.9688 15.8438C10.9688 17.0896 10.5354 18.1458 9.66875 19.0125C8.80208 19.8792 7.74583 20.3125 6.5 20.3125ZM32.5 20.3125C31.2542 20.3125 30.1979 19.8792 29.3312 19.0125C28.4646 18.1458 28.0312 17.0896 28.0312 15.8438C28.0312 14.5979 28.4646 13.5417 29.3312 12.675C30.1979 11.8083 31.2542 11.375 32.5 11.375C33.7458 11.375 34.8021 11.8083 35.6688 12.675C36.5354 13.5417 36.9688 14.5979 36.9688 15.8438C36.9688 17.0896 36.5354 18.1458 35.6688 19.0125C34.8021 19.8792 33.7458 20.3125 32.5 20.3125ZM19.5 15.4375C18.2542 15.4375 17.1979 15.0042 16.3313 14.1375C15.4646 13.2708 15.0313 12.2146 15.0312 10.9688C15.0312 9.72292 15.4646 8.66667 16.3313 7.8C17.1979 6.93333 18.2542 6.5 19.5 6.5C20.7458 6.5 21.8021 6.93333 22.6687 7.8C23.5354 8.66667 23.9687 9.72292 23.9688 10.9688C23.9688 12.2146 23.5354 13.2708 22.6687 14.1375C21.8021 15.0042 20.7458 15.4375 19.5 15.4375Z" fill="#F2F2F2" fill-opacity="0.1"/>
</svg>
