<svg width="106" height="19" viewBox="0 0 106 19" fill="none" xmlns="http://www.w3.org/2000/svg">
<path d="M2.504 1.344H7.664L11.12 9.936L8.984 18.528L2.504 1.344ZM15.296 0.816L15.896 3.48L9.848 15.864C9.848 15.864 9.792 16 9.68 16.272C9.584 16.528 9.48 16.856 9.368 17.256C9.272 17.656 9.216 18.08 9.2 18.528H8.984L8.168 15.216L15.08 0.816H15.296ZM15.296 0.839999L20.744 10.896L19.184 18.528L13.088 7.056L15.296 0.839999ZM24.296 1.344L19.76 15.864C19.76 15.864 19.72 16.008 19.64 16.296C19.56 16.568 19.488 16.912 19.424 17.328C19.376 17.728 19.376 18.128 19.424 18.528H19.184L18.248 16.152L22.448 1.344H24.296ZM21.992 2.928C22.12 2.448 22.08 2.08 21.872 1.824C21.664 1.568 21.4 1.44 21.08 1.44H20.864V1.2H26.096V1.44C26.096 1.44 26.064 1.44 26 1.44C25.936 1.44 25.904 1.44 25.904 1.44C25.536 1.44 25.136 1.56 24.704 1.8C24.272 2.024 23.968 2.4 23.792 2.928H21.992ZM8.312 2.928H3.104C2.896 2.4 2.584 2.024 2.168 1.8C1.752 1.56 1.36 1.44 0.992 1.44C0.992 1.44 0.96 1.44 0.896 1.44C0.832 1.44 0.8 1.44 0.8 1.44V1.2H9.416V1.44H9.2C8.896 1.44 8.624 1.568 8.384 1.824C8.16 2.08 8.136 2.448 8.312 2.928ZM46.2528 3.6V18H41.5728V3.6H46.2528ZM36.8928 3.6V18H32.1888V3.6H36.8928ZM41.7408 10.224V11.328H36.7008V10.224H41.7408ZM32.2608 16.512V18H30.6768V17.76C30.6768 17.76 30.7168 17.76 30.7968 17.76C30.8768 17.76 30.9248 17.76 30.9408 17.76C31.2768 17.76 31.5648 17.64 31.8048 17.4C32.0608 17.16 32.1888 16.864 32.1888 16.512H32.2608ZM36.8448 16.512H36.8928C36.9088 16.864 37.0368 17.16 37.2768 17.4C37.5168 17.64 37.8128 17.76 38.1648 17.76C38.1648 17.76 38.2048 17.76 38.2848 17.76C38.3648 17.76 38.4048 17.76 38.4048 17.76V18H36.8448V16.512ZM36.8448 5.088V3.6H38.4048V3.84C38.4048 3.84 38.3648 3.84 38.2848 3.84C38.2048 3.84 38.1648 3.84 38.1648 3.84C37.8128 3.84 37.5168 3.96 37.2768 4.2C37.0368 4.424 36.9088 4.72 36.8928 5.088H36.8448ZM32.2608 5.088H32.1888C32.1888 4.72 32.0608 4.424 31.8048 4.2C31.5648 3.96 31.2768 3.84 30.9408 3.84C30.9248 3.84 30.8768 3.84 30.7968 3.84C30.7168 3.84 30.6768 3.84 30.6768 3.84V3.6H32.2608V5.088ZM41.6208 16.512V18H40.0608V17.76C40.0608 17.76 40.1008 17.76 40.1808 17.76C40.2608 17.76 40.3008 17.76 40.3008 17.76C40.6528 17.76 40.9488 17.64 41.1888 17.4C41.4288 17.16 41.5568 16.864 41.5728 16.512H41.6208ZM46.1808 16.512H46.2528C46.2528 16.864 46.3728 17.16 46.6128 17.4C46.8528 17.64 47.1488 17.76 47.5008 17.76C47.5008 17.76 47.5408 17.76 47.6208 17.76C47.7168 17.76 47.7648 17.76 47.7648 17.76V18H46.1808V16.512ZM46.2048 5.088V3.6H47.7888V3.84C47.7888 3.84 47.7408 3.84 47.6448 3.84C47.5648 3.84 47.5248 3.84 47.5248 3.84C47.1728 3.84 46.8768 3.96 46.6368 4.2C46.3968 4.424 46.2768 4.72 46.2768 5.088H46.2048ZM41.6208 5.088H41.5728C41.5568 4.72 41.4288 4.424 41.1888 4.2C40.9488 3.96 40.6528 3.84 40.3008 3.84C40.3008 3.84 40.2608 3.84 40.1808 3.84C40.1008 3.84 40.0608 3.84 40.0608 3.84V3.6H41.6208V5.088ZM60.6986 2.736L68.1386 17.88H62.6906L58.6346 8.616L60.6986 2.736ZM56.2586 16.536C56.0826 16.936 56.1066 17.24 56.3306 17.448C56.5546 17.656 56.8026 17.76 57.0746 17.76H57.2426V18H52.2986V17.76C52.2986 17.76 52.3306 17.76 52.3946 17.76C52.4586 17.76 52.4906 17.76 52.4906 17.76C52.8106 17.76 53.1466 17.672 53.4986 17.496C53.8506 17.304 54.1306 16.984 54.3386 16.536H56.2586ZM60.6986 2.736L60.6746 6.408L55.6346 17.928H53.6906L59.2586 5.928C59.3226 5.768 59.4186 5.552 59.5466 5.28C59.6746 4.992 59.8026 4.688 59.9306 4.368C60.0746 4.032 60.2026 3.72 60.3146 3.432C60.4266 3.144 60.4906 2.912 60.5066 2.736H60.6986ZM62.3066 13.872V14.952H56.3306V13.872H62.3066ZM62.0906 16.536H67.4666C67.6906 16.984 67.9786 17.304 68.3306 17.496C68.6826 17.672 69.0186 17.76 69.3386 17.76C69.3386 17.76 69.3706 17.76 69.4346 17.76C69.4986 17.76 69.5306 17.76 69.5306 17.76V18H61.0826V17.76H61.2746C61.5466 17.76 61.7946 17.656 62.0186 17.448C62.2426 17.24 62.2666 16.936 62.0906 16.536ZM80.2306 3.6V18H75.5266V3.6H80.2306ZM85.2706 16.896L86.2546 18H80.1826V16.896H85.2706ZM86.9986 12.96L86.3026 18H81.8386L82.5346 16.896C83.1586 16.896 83.7506 16.744 84.3106 16.44C84.8866 16.12 85.3906 15.672 85.8226 15.096C86.2546 14.504 86.5666 13.792 86.7586 12.96H86.9986ZM75.5986 16.512L75.5746 18H74.0146V17.76C74.0146 17.76 74.0546 17.76 74.1346 17.76C74.2146 17.76 74.2626 17.76 74.2786 17.76C74.6146 17.76 74.9026 17.64 75.1426 17.4C75.3986 17.16 75.5266 16.864 75.5266 16.512H75.5986ZM80.1826 5.088V3.6H81.7666V3.84C81.7506 3.84 81.7026 3.84 81.6226 3.84C81.5426 3.84 81.5026 3.84 81.5026 3.84C81.1506 3.84 80.8546 3.96 80.6146 4.2C80.3746 4.424 80.2466 4.72 80.2306 5.088H80.1826ZM75.5986 5.088H75.5266C75.5266 4.72 75.3986 4.424 75.1426 4.2C74.9026 3.96 74.6146 3.84 74.2786 3.84C74.2626 3.84 74.2146 3.84 74.1346 3.84C74.0546 3.84 74.0146 3.84 74.0146 3.84V3.6H75.5986V5.088ZM98.63 3.6V18H93.926V3.6H98.63ZM103.694 16.896L104.654 18H98.582V16.896H103.694ZM103.094 10.344V11.472H98.582V10.344H103.094ZM104.15 3.6V4.704H98.582V3.6H104.15ZM105.374 12.96L104.702 18H100.238L100.934 16.896C101.558 16.896 102.15 16.744 102.71 16.44C103.286 16.12 103.79 15.672 104.222 15.096C104.654 14.504 104.966 13.792 105.158 12.96H105.374ZM103.094 11.424V14.016H102.854V13.92C102.854 13.216 102.63 12.64 102.182 12.192C101.75 11.728 101.182 11.488 100.478 11.472V11.424H103.094ZM103.094 7.824V10.392H100.478V10.344C101.182 10.328 101.75 10.088 102.182 9.624C102.63 9.16 102.854 8.576 102.854 7.872V7.824H103.094ZM104.15 4.656V7.776H103.91V7.656C103.91 6.728 103.67 6.008 103.19 5.496C102.71 4.984 102.014 4.72 101.102 4.704V4.656H104.15ZM104.15 3.24V3.816L101.774 3.6C102.206 3.6 102.662 3.56 103.142 3.48C103.638 3.384 103.974 3.304 104.15 3.24ZM93.998 16.512L93.974 18H92.414V17.76C92.414 17.76 92.454 17.76 92.534 17.76C92.614 17.76 92.662 17.76 92.678 17.76C93.014 17.76 93.302 17.64 93.542 17.4C93.798 17.16 93.926 16.864 93.926 16.512H93.998ZM93.998 5.112H93.926C93.926 4.744 93.798 4.44 93.542 4.2C93.302 3.96 93.014 3.84 92.678 3.84C92.662 3.84 92.614 3.84 92.534 3.84C92.454 3.84 92.414 3.84 92.414 3.84V3.6H93.974L93.998 5.112Z" fill="#FFD59A"/>
</svg>
