<svg width="15" height="10" viewBox="0 0 15 10" fill="none" xmlns="http://www.w3.org/2000/svg">
<path d="M7.21667 7.83333C8.00556 7.83333 8.675 7.55833 9.225 7.00833C9.775 6.45833 10.05 5.78889 10.05 5C10.05 4.21111 9.775 3.54167 9.225 2.99167C8.675 2.44167 8.00556 2.16667 7.21667 2.16667C6.42778 2.16667 5.75833 2.44167 5.20833 2.99167C4.65833 3.54167 4.38333 4.21111 4.38333 5C4.38333 5.78889 4.65833 6.45833 5.20833 7.00833C5.75833 7.55833 6.42778 7.83333 7.21667 7.83333ZM7.21667 6.86667C6.69444 6.86667 6.25278 6.68611 5.89167 6.325C5.53056 5.96389 5.35 5.52222 5.35 5C5.35 4.47778 5.53056 4.03611 5.89167 3.675C6.25278 3.31389 6.69444 3.13333 7.21667 3.13333C7.73889 3.13333 8.18056 3.31389 8.54167 3.675C8.90278 4.03611 9.08333 4.47778 9.08333 5C9.08333 5.52222 8.90278 5.96389 8.54167 6.325C8.18056 6.68611 7.73889 6.86667 7.21667 6.86667ZM7.21667 10C5.68333 10 4.28611 9.58333 3.025 8.75C1.76389 7.91667 0.788889 6.81667 0.1 5.45C0.0666667 5.39444 0.0416667 5.32778 0.025 5.25C0.00833335 5.17222 0 5.08889 0 5C0 4.91111 0.00833335 4.82778 0.025 4.75C0.0416667 4.67222 0.0666667 4.60556 0.1 4.55C0.788889 3.18333 1.76389 2.08333 3.025 1.25C4.28611 0.416667 5.68333 0 7.21667 0C8.75 0 10.1472 0.416667 11.4083 1.25C12.6694 2.08333 13.6444 3.18333 14.3333 4.55C14.3667 4.60556 14.3917 4.67222 14.4083 4.75C14.425 4.82778 14.4333 4.91111 14.4333 5C14.4333 5.08889 14.425 5.17222 14.4083 5.25C14.3917 5.32778 14.3667 5.39444 14.3333 5.45C13.6444 6.81667 12.6694 7.91667 11.4083 8.75C10.1472 9.58333 8.75 10 7.21667 10ZM7.21667 9C8.56111 9 9.79722 8.63611 10.925 7.90833C12.0528 7.18056 12.9111 6.21111 13.5 5C12.9111 3.78889 12.0528 2.81944 10.925 2.09167C9.79722 1.36389 8.56111 1 7.21667 1C5.87222 1 4.63611 1.36389 3.50833 2.09167C2.38056 2.81944 1.51667 3.78889 0.916667 5C1.51667 6.21111 2.38056 7.18056 3.50833 7.90833C4.63611 8.63611 5.87222 9 7.21667 9Z" fill="#9F8E62"/>
</svg>
