<svg width="42" height="30" viewBox="0 0 42 30" fill="none" xmlns="http://www.w3.org/2000/svg">
<path d="M0 7.5C0 3.35787 3.35787 0 7.5 0H34.5C38.6421 0 42 3.35787 42 7.5V22.5C42 26.6421 38.6421 30 34.5 30H7.5C3.35787 30 0 26.6421 0 22.5V7.5ZM10.5 9C9.67158 9 9 9.67158 9 10.5V19.5C9 20.3284 9.67158 21 10.5 21C11.3284 21 12 20.3284 12 19.5V10.5C12 9.67158 11.3284 9 10.5 9ZM31.0614 16.9401C31.3425 16.3527 31.5 15.6947 31.5 15C31.5 14.3053 31.3425 13.6473 31.0614 13.0599L32.5608 11.5606C33.1464 10.9749 33.1464 10.0251 32.5608 9.43935C31.9749 8.85354 31.0251 8.85354 30.4392 9.43935L28.9401 10.9386C28.3527 10.6574 27.6948 10.5 27 10.5C26.3053 10.5 25.6473 10.6574 25.0599 10.9386L23.5606 9.43935C22.9749 8.85354 22.0251 8.85354 21.4394 9.43935C20.8535 10.0251 20.8535 10.9749 21.4394 11.5606L22.9385 13.0599C22.6574 13.6473 22.5 14.3053 22.5 15C22.5 15.6947 22.6574 16.3527 22.9386 16.9401L21.4394 18.4394C20.8535 19.0251 20.8535 19.9749 21.4394 20.5606C22.0251 21.1464 22.9749 21.1464 23.5606 20.5606L25.0599 19.0615C25.6473 19.3426 26.3053 19.5 27 19.5C27.6948 19.5 28.3527 19.3426 28.9401 19.0615L30.4392 20.5606C31.0251 21.1464 31.9749 21.1464 32.5608 20.5606C33.1464 19.9749 33.1464 19.0251 32.5608 18.4394L31.0614 16.9401Z" fill="#9F8E62"/>
</svg>
